<?xml version="1.0" encoding="UTF-8" standalone="no"?><!DOCTYPE svg PUBLIC "-//W3C//DTD SVG 1.1//EN" "http://www.w3.org/Graphics/SVG/1.1/DTD/svg11.dtd"><svg width="100%" height="100%" viewBox="0 0 24 24" version="1.1" xmlns="http://www.w3.org/2000/svg" xmlns:xlink="http://www.w3.org/1999/xlink" xml:space="preserve" style="fill-rule:evenodd;clip-rule:evenodd;stroke-linejoin:round;stroke-miterlimit:1.41421;"><g id="filled"><g id="filled1"><path d="M21.86,2.855c0.521,0 0.943,0.423 0.943,0.943l0,7.545c0,0.52 -0.422,0.943 -0.943,0.943l-9.259,0c-0.52,0 -0.943,-0.423 -0.943,-0.943l0,-7.545c0,-0.52 0.423,-0.943 0.943,-0.943l9.259,0Zm-8.544,7.145l-0.743,0c-0.032,0 -0.058,0.025 -0.058,0.057l0,0.457c0,0.032 0.026,0.057 0.058,0.057l0.743,0c0.031,0 0.057,-0.025 0.057,-0.057l0,-0.457c0,-0.032 -0.026,-0.057 -0.057,-0.057Zm0.057,-1.658c0,-0.031 -0.026,-0.057 -0.057,-0.057l-0.743,0c-0.032,0 -0.058,0.026 -0.058,0.057l0,0.457c0,0.032 0.026,0.057 0.058,0.057l0.743,0c0.031,0 0.057,-0.025 0.057,-0.057l0,-0.457Zm-0.057,-2.058l-0.743,0c-0.032,0 -0.058,0.026 -0.058,0.058l0,0.457c0,0.031 0.026,0.057 0.058,0.057l0.743,0c0.031,0 0.057,-0.026 0.057,-0.057l0,-0.457c0,-0.032 -0.026,-0.058 -0.057,-0.058Zm0.057,-1.657c0,-0.032 -0.026,-0.057 -0.057,-0.057l-0.743,0c-0.032,0 -0.058,0.025 -0.058,0.057l0,0.457c0,0.032 0.026,0.057 0.058,0.057l0.743,0c0.031,0 0.057,-0.025 0.057,-0.057l0,-0.457Z"/><path d="M16.63,7.142c0.52,0 0.943,0.422 0.943,0.943l0,7.544c0,0.521 -0.423,0.943 -0.943,0.943l-9.26,0c-0.52,0 -0.943,-0.422 -0.943,-0.943l0,-7.544c0,-0.521 0.423,-0.943 0.943,-0.943l9.26,0Zm-8.545,7.144l-0.743,0c-0.032,0 -0.057,0.026 -0.057,0.057l0,0.458c0,0.031 0.025,0.057 0.057,0.057l0.743,0c0.031,0 0.057,-0.026 0.057,-0.057l0,-0.458c0,-0.031 -0.026,-0.057 -0.057,-0.057Zm0.057,-1.657c0,-0.032 -0.026,-0.057 -0.057,-0.057l-0.743,0c-0.032,0 -0.057,0.025 -0.057,0.057l0,0.457c0,0.031 0.025,0.057 0.057,0.057l0.743,0c0.031,0 0.057,-0.026 0.057,-0.057l0,-0.457Zm-0.057,-2.058l-0.743,0c-0.032,0 -0.057,0.026 -0.057,0.057l0,0.458c0,0.031 0.025,0.057 0.057,0.057l0.743,0c0.031,0 0.057,-0.026 0.057,-0.057l0,-0.458c0,-0.031 -0.026,-0.057 -0.057,-0.057Zm0.057,-1.657c0,-0.032 -0.026,-0.058 -0.057,-0.058l-0.743,0c-0.032,0 -0.057,0.026 -0.057,0.058l0,0.457c0,0.031 0.025,0.057 0.057,0.057l0.743,0c0.031,0 0.057,-0.026 0.057,-0.057l0,-0.457Z"/><path d="M11.399,11.714c0.52,0 0.943,0.423 0.943,0.943l0,7.545c0,0.52 -0.423,0.943 -0.943,0.943l-9.259,0c-0.521,0 -0.943,-0.423 -0.943,-0.943l0,-7.545c0,-0.52 0.422,-0.943 0.943,-0.943l9.259,0Zm-8.545,7.145l-0.743,0c-0.031,0 -0.057,0.025 -0.057,0.057l0,0.457c0,0.032 0.026,0.057 0.057,0.057l0.743,0c0.032,0 0.057,-0.025 0.057,-0.057l0,-0.457c0,-0.032 -0.025,-0.057 -0.057,-0.057Zm0.057,-1.658c0,-0.031 -0.025,-0.057 -0.057,-0.057l-0.743,0c-0.031,0 -0.057,0.026 -0.057,0.057l0,0.457c0,0.032 0.026,0.058 0.057,0.058l0.743,0c0.032,0 0.057,-0.026 0.057,-0.058l0,-0.457Zm-0.057,-2.057l-0.743,0c-0.031,0 -0.057,0.025 -0.057,0.057l0,0.457c0,0.031 0.026,0.057 0.057,0.057l0.743,0c0.032,0 0.057,-0.026 0.057,-0.057l0,-0.457c0,-0.032 -0.025,-0.057 -0.057,-0.057Zm0.057,-1.658c0,-0.032 -0.025,-0.057 -0.057,-0.057l-0.743,0c-0.031,0 -0.057,0.025 -0.057,0.057l0,0.457c0,0.032 0.026,0.057 0.057,0.057l0.743,0c0.032,0 0.057,-0.025 0.057,-0.057l0,-0.457Z"/></g><rect x="0" y="0" width="24" height="24" style="fill:none;"/></g></svg>