<?xml version="1.0" encoding="UTF-8" standalone="no"?><!DOCTYPE svg PUBLIC "-//W3C//DTD SVG 1.1//EN" "http://www.w3.org/Graphics/SVG/1.1/DTD/svg11.dtd"><svg width="100%" height="100%" viewBox="0 0 24 24" version="1.1" xmlns="http://www.w3.org/2000/svg" xmlns:xlink="http://www.w3.org/1999/xlink" xml:space="preserve" style="fill-rule:evenodd;clip-rule:evenodd;stroke-linejoin:round;stroke-miterlimit:1.41421;"><rect x="0" y="0" width="24" height="24" style="fill:none;"/><g id="ibi-filled"><path d="M17.213,13.495c0,0 1.173,1.018 1.622,1.889c0.448,0.871 1.031,2.538 -0.171,3.926c-1.202,1.389 -3.329,1.281 -3.329,1.281c0,0 -1.657,-0.183 -3.072,-1.366c-1.416,-1.183 -1.622,-2.219 -1.622,-2.219c0,0 4.025,-0.871 6.572,-3.511Zm-0.853,6.754c0,0 0.133,0.135 0.256,0.086c0.122,-0.05 0.325,-0.26 0.17,-0.427c-0.154,-0.167 -0.512,-0.567 -0.512,-0.567c0,0 -0.158,-0.153 -0.341,-0.031c-0.184,0.123 -0.301,0.171 -0.256,0.256c0.045,0.086 0.561,0.593 0.683,0.683Zm0.426,-1.433c-0.123,-0.017 -0.425,0.146 -0.341,0.324c0.084,0.177 0.597,0.683 0.597,0.683c0,0 0.123,0.101 0.257,0c0.134,-0.102 0.248,-0.256 0.17,-0.342c-0.077,-0.085 -0.449,-0.633 -0.683,-0.665Zm0.769,0.409c0,0 0.151,0.178 0.256,0.171c0.104,-0.007 0.223,-0.054 0.256,-0.256c0.033,-0.203 -0.37,-0.817 -0.427,-0.854c-0.057,-0.036 -0.158,-0.093 -0.256,0c-0.099,0.094 -0.205,0.193 -0.171,0.342c0.035,0.148 0.342,0.597 0.342,0.597Zm0.768,-1.535c0,0 -0.036,-0.162 -0.171,-0.087c-0.134,0.075 -0.36,0.307 -0.256,0.514c0.105,0.208 0.4,0.717 0.512,0.681c0.113,-0.035 0.331,-0.202 0.256,-0.426c-0.075,-0.225 -0.341,-0.682 -0.341,-0.682Zm0.256,-0.428c0,0 0.037,-0.114 0.085,-0.218c0.048,-0.105 0.204,-0.272 0.256,-0.209c0.052,0.063 0.231,0.372 0.256,0.683c0.025,0.311 -0.035,0.436 -0.085,0.512c-0.05,0.076 -0.126,0.185 -0.256,-0.085c-0.13,-0.27 -0.287,-0.49 -0.256,-0.683Zm-6.316,-0.069c0,0 -0.344,-0.091 -0.512,-0.042c-0.169,0.05 -0.502,0.128 -0.427,0.282c0.075,0.153 0.379,0.498 0.768,0.597c0.389,0.099 0.81,0.026 0.854,-0.085c0.043,-0.111 0.003,-0.153 -0.171,-0.342c-0.175,-0.188 -0.512,-0.41 -0.512,-0.41Zm1.451,-0.358c0,0 -0.215,-0.228 -0.342,-0.222c-0.323,0.016 -0.756,0.215 -0.683,0.308c0.074,0.092 0.612,0.802 0.854,0.768c0.242,-0.035 0.517,-0.106 0.597,-0.256c0.081,-0.151 -0.395,-0.574 -0.426,-0.598Zm0.939,-0.768c0,0 -0.162,-0.078 -0.342,0c-0.18,0.078 -0.34,0.195 -0.341,0.256c-0.001,0.061 0.077,0.237 0.256,0.427c0.179,0.19 0.366,0.522 0.597,0.427c0.232,-0.096 0.404,-0.194 0.427,-0.342c0.023,-0.147 -0.597,-0.768 -0.597,-0.768Zm1.109,-0.683c0,0 -0.117,-0.106 -0.256,0c-0.139,0.106 -0.415,0.251 -0.341,0.444c0.074,0.193 0.512,0.751 0.512,0.751c0,0 0.158,0.063 0.427,-0.171c0.268,-0.233 0,-0.58 0,-0.58l-0.342,-0.444Zm1.024,-0.853c0,0 -0.068,-0.062 -0.256,0.085c-0.188,0.147 -0.341,0.427 -0.341,0.427c0,0 -0.043,0.043 0.085,0.256c0.128,0.213 0.269,0.495 0.342,0.512c0.073,0.017 0.208,0.051 0.341,-0.085c0.134,-0.137 0.264,-0.165 0.171,-0.513c-0.093,-0.347 -0.342,-0.682 -0.342,-0.682Z"/><path d="M16.872,2.837c0,0 -0.662,-0.07 -1.366,0c-0.703,0.071 -2.127,0.65 -2.304,0.768c-0.178,0.118 -0.81,0.407 -1.195,0.769c-0.386,0.361 -1.527,1.581 -1.878,2.219c-0.351,0.638 -1.084,2.227 -1.28,3.243c-0.197,1.016 -0.405,2.815 -0.342,4.012c0.064,1.197 0.517,2.984 1.024,3.926c0.508,0.942 1.405,2.01 2.197,2.561c0.791,0.55 2.684,1.312 4.729,1.024c0.581,-0.082 1.012,-0.171 1.012,-0.171c0,0 -2.507,0.804 -4.438,0.683c-1.932,-0.121 -3.598,-0.383 -6.06,-1.451c-2.462,-1.068 -4.518,-2.888 -5.121,-4.694c-0.361,-1.081 -0.698,-2.104 -0.53,-3.527c0.056,-0.476 0.392,-2.187 1.212,-3.387c2.042,-2.984 4.298,-4.307 5.804,-4.951c1.507,-0.643 3.051,-1.157 5.036,-1.365c1.985,-0.208 3.5,0.341 3.5,0.341Zm-6.146,17.071l-0.682,0c-0.027,0.17 0.303,0.32 0.938,0.683c0.636,0.363 1.196,0.346 1.195,0.341c-0.383,-0.164 -1.449,-1.023 -1.451,-1.024Zm-2.56,-1.622c-0.001,0 -0.202,-0.047 0.256,0.427c0.458,0.475 0.768,0.597 0.768,0.597c0,0 0.708,0.007 0.768,0c0.06,-0.006 0.102,-0.081 -0.085,-0.341c-0.187,-0.259 -0.767,-0.682 -0.768,-0.683l-0.939,0Zm-1.195,-1.608l1.024,-0.014c0,0 0.699,0.701 0.598,0.939c0,0.041 -0.864,0.237 -1.025,0.086c-0.16,-0.151 -0.845,-0.979 -0.597,-1.011Zm-4.183,-0.084c0,0 0.37,0.904 0.696,0.924c0.325,0.02 1.097,0 1.097,0c0,0 -0.234,-0.798 -0.768,-0.939c0.005,0.013 -1.025,0.015 -1.025,0.015Zm4.61,-1.466c0,0 0.509,0.74 0.426,0.854c-0.028,0.039 0.015,0.051 -0.256,0.085c-0.27,0.034 -0.939,0 -0.939,0c0,0 -0.407,-0.377 -0.426,-0.597c-0.019,-0.221 0,-0.342 0,-0.342l1.195,0Zm-5.463,-0.087c0,0 0.04,0.92 0.51,0.941c0.47,0.02 1.026,0 1.026,0c0,0 0.126,-0.607 -0.426,-0.939c0.003,-0.003 -1.11,-0.002 -1.11,-0.002Zm5.121,-1.535l-1.139,0c-0.116,0.099 -0.081,0.375 -0.056,0.598c0.025,0.223 0.199,0.374 0.256,0.427c0.057,0.053 0.873,0 0.873,0c0,0 0.209,0.004 0.237,-0.086c0.028,-0.09 0.038,-0.49 0,-0.683c-0.038,-0.192 -0.17,-0.255 -0.171,-0.256Zm-5.548,0.086c0,0 -0.089,0.823 0.253,0.853c0.342,0.031 1.113,0 1.113,0c0,0 0.258,-0.912 -0.171,-0.932c-0.429,-0.021 -1.105,-0.061 -1.195,0.079Zm5.548,-1.621l-1.109,-0.001c0,0 -0.144,0.051 -0.171,0.171c-0.028,0.12 0,0.683 0,0.683c0,0 0.061,0.148 0.141,0.17c0.081,0.022 0.968,0 0.968,0c0,0 0.166,-0.026 0.207,-0.151c0.041,-0.125 0.051,-0.769 -0.036,-0.872Zm-5.377,-0.001c0,0 -0.256,0.174 -0.256,0.427c0,0.253 0.085,0.512 0.085,0.512l1.11,0c0,0 0.133,-0.06 0.17,-0.256c0.038,-0.196 0.028,-0.537 -0.085,-0.598c-0.113,-0.06 -0.186,-0.238 -1.024,-0.085Zm5.548,-1.536l-1.024,0c-0.414,0.234 -0.256,0.939 -0.256,0.939c0,0 1.195,0.004 1.195,0c0.245,-0.332 0.085,-0.938 0.085,-0.939Zm-4.097,0.085c0,0 -0.109,0.68 -0.256,0.768c-0.147,0.088 -1.11,0.086 -1.11,0.086c0,0 -0.053,-0.795 0.256,-0.854c0.309,-0.059 1.11,0 1.11,0Zm0.683,-1.536c0,0 -0.226,0.734 -0.427,0.853c-0.201,0.119 -1.11,0 -1.11,0c0,0 0.073,-0.735 0.512,-0.853c0.44,-0.118 1.025,0 1.025,0Zm2.816,-0.171l1.067,0c0,0 -0.007,0.696 -0.298,1.024c-0.002,0.005 -1.11,0 -1.11,0c0,0 -0.061,-0.567 0.341,-1.024Zm-1.707,-1.366c0,0 -0.543,0.832 -0.768,0.854c-0.225,0.022 -0.939,0 -0.939,0c0,0 0.481,-0.916 0.768,-0.939c0.288,-0.023 0.939,0.085 0.939,0.085Zm3.585,-0.17l-1.024,0c0,0 -0.594,0.798 -0.598,0.939c-0.006,0 1.11,0 1.11,0c0,0 0.309,-0.656 0.512,-0.939Zm-1.878,-1.537c0,0 -0.9,1.006 -1.109,1.024c-0.21,0.019 -0.854,0 -0.854,0c0,0 0.869,-0.997 1.366,-1.024c0.497,-0.026 0.597,0 0.597,0Zm2.22,0.939c0,-0.001 0.198,-0.261 0.426,-0.597c0.229,-0.337 0.342,-0.342 0.342,-0.342c0,0 -0.015,-0.053 -0.171,-0.085c-0.156,-0.033 -0.506,0.008 -0.683,0.085c-0.176,0.078 -0.71,0.67 -0.768,0.768c-0.058,0.099 0,0.171 0,0.171l0.854,0Zm-1.707,-1.366c0.112,-0.152 1.451,-1.024 1.451,-1.024c-1.067,-0.065 -2.134,1.024 -2.134,1.024c0,0 0.681,-0.001 0.683,0l0,0c0,0 0,0 0,0Zm2.475,-0.341c0.018,0 0.383,0.201 0.683,0c0.308,-0.207 1.255,-0.9 1.428,-0.939c-0.011,-0.044 -0.148,-0.085 -0.148,-0.085c0,0 -0.963,0.135 -1.963,1.024Zm0,0c0,0 0,0 0,0l0,0Z"/><path d="M19.588,19.054c0,0 0.757,-0.647 0.939,-1.621c0.182,-0.975 0.073,-2.139 -0.427,-2.817c-0.5,-0.678 -3.111,-4.247 -9.389,-5.633c-0.395,-0.088 0.976,-2.334 1.537,-2.902c0.56,-0.568 2.371,-2.29 4.523,-2.049c2.152,0.241 3.244,1.878 3.244,1.878c0,0 1.293,1.71 1.792,3.67c0.499,1.96 0.695,3.874 0.086,5.804c-0.61,1.93 -1.421,2.957 -2.305,3.67Z"/></g></svg>